<?xml version="1.0" standalone="no"?>
<!DOCTYPE svg PUBLIC "-//W3C//DTD SVG 20010904//EN"
 "http://www.w3.org/TR/2001/REC-SVG-20010904/DTD/svg10.dtd">
<svg version="1.0" xmlns="http://www.w3.org/2000/svg"
 width="512.000000pt" height="512.000000pt" viewBox="0 0 512.000000 512.000000"
 preserveAspectRatio="xMidYMid meet">

<g transform="translate(0.000000,512.000000) scale(0.100000,-0.100000)"
fill="currentColor" stroke="none">
<path d="M2290 5106 c-671 -78 -1271 -401 -1702 -916 -208 -249 -393 -595
-483 -905 -25 -88 -65 -255 -65 -275 0 -7 299 -10 898 -10 l897 1 30 67 c148
335 452 586 825 680 95 24 123 27 285 27 155 -1 193 -4 274 -24 461 -115 798
-449 915 -907 36 -141 39 -418 5 -549 -111 -435 -400 -756 -799 -889 -158 -53
-269 -69 -435 -64 -513 17 -943 334 -1116 820 l-24 68 -887 0 -887 0 6 -38
c101 -704 508 -1352 1099 -1750 331 -223 677 -355 1094 -418 160 -25 520 -25
680 0 341 51 620 144 895 297 217 121 367 232 544 404 223 217 376 426 511
699 127 259 199 483 242 761 31 201 31 550 0 750 -43 277 -113 498 -237 750
-128 262 -253 440 -455 648 -411 426 -915 680 -1520 767 -121 18 -460 21 -590
6z"/>
<path d="M2875 3313 c-433 -92 -698 -524 -584 -952 57 -216 200 -388 404 -486
122 -58 201 -76 338 -76 301 1 549 156 687 430 92 184 98 429 15 634 -133 325
-513 525 -860 450z"/>
</g>
</svg>
